<?xml version="1.0" encoding="utf-8"?>
<!-- Generator: Adobe Illustrator 27.5.0, SVG Export Plug-In . SVG Version: 6.00 Build 0)  -->
<svg version="1.1" id="Capa_1" xmlns="http://www.w3.org/2000/svg" xmlns:xlink="http://www.w3.org/1999/xlink" x="0px" y="0px"
	 viewBox="0 0 425.2 425.2" style="enable-background:new 0 0 425.2 425.2;" xml:space="preserve">
<g>
	<g>
		<path style="fill:#85D3EA;" d="M141.734,307.328c-25.469,0.022-56.07-27.906-68.838-51.635
			c-21.459-39.869-20.303-111.428,37.338-117.746c13.443-1.474,27.18,3.637,40.473,1.085c35.797-6.874,34.232-58.338,64.467-73.887
			c22.207-11.421,50.398-10.121,71.68,2.782c31.697,19.217,47.557,57.419,52.975,92.701c3.139,20.438,2.633,43.115-2.324,63.285
			c-4.938,20.092-16.648,42.861-31.971,57.171c-28.289,26.423-68.438,26.189-102.383,26.189
			C203.15,307.273,141.785,307.328,141.734,307.328z"/>
		<path style="fill:#FDCFAD;" d="M193.053,286.285c-20.826-2.238-120.131-2.122-120.096,27.786
			c0.035,32.248,112.723-5.788,135.41,14.397c-8.301,9.44-49.084,17.987-32.002,34.973c6.262,6.225,28.771,7.854,37.182,8.332
			c18.381,1.044,50.574,1.958,68.668,0.288c25.267-2.332,47.855,3.285,65.975-21.672c13.037-17.956-9.457-24.115-24.469-26.466
			c16.471-6.669,38.51-37.366,2.766-37.638H193.053z"/>
		<path style="fill:#FFFFFF;" d="M97.535,191.418c-0.703,0-1.385,0.086-2.043,0.234c0.297-0.903,0.463-1.865,0.463-2.867
			c0-5.093-4.129-9.221-9.221-9.221c-3.658,0-6.809,2.135-8.299,5.222c-1.49-3.087-4.641-5.222-8.299-5.222
			c-5.092,0-9.219,4.128-9.219,9.221c0,0.268,0.016,0.529,0.039,0.791c-1.141-0.506-2.4-0.791-3.729-0.791
			c-5.092,0-9.219,4.127-9.219,9.22c0,5.093,4.127,9.221,9.219,9.221c0.635,0,1.254-0.064,1.854-0.187
			c-0.002,0.062-0.01,0.123-0.01,0.187c0,5.092,4.129,9.221,9.221,9.221c3.1,0,5.836-1.536,7.51-3.882
			c1.67,2.346,4.406,3.882,7.506,3.882c4.719,0,8.602-3.544,9.148-8.115c1.457,0.964,3.201,1.528,5.078,1.528
			c5.092,0,9.221-4.128,9.221-9.221C106.756,195.547,102.627,191.418,97.535,191.418z"/>
		<path style="fill:#FFFFFF;" d="M250.707,76.182c-0.701,0-1.385,0.086-2.041,0.234c0.295-0.903,0.461-1.865,0.461-2.867
			c0-5.094-4.129-9.221-9.221-9.221c-3.658,0-6.807,2.135-8.297,5.222c-1.49-3.087-4.643-5.222-8.299-5.222
			c-5.094,0-9.221,4.127-9.221,9.221c0,0.268,0.018,0.529,0.039,0.791c-1.141-0.506-2.4-0.791-3.729-0.791
			c-5.092,0-9.219,4.127-9.219,9.219c0,5.094,4.127,9.222,9.219,9.222c0.635,0,1.256-0.064,1.854-0.187
			c-0.002,0.062-0.01,0.123-0.01,0.187c0,5.092,4.129,9.221,9.223,9.221c3.098,0,5.836-1.536,7.508-3.882
			c1.67,2.346,4.408,3.882,7.506,3.882c4.719,0,8.602-3.544,9.148-8.115c1.457,0.964,3.201,1.528,5.078,1.528
			c5.092,0,9.221-4.128,9.221-9.221C259.928,80.311,255.799,76.182,250.707,76.182z"/>
		<path style="fill:#FFFFFF;" d="M319.547,193.55c-0.703,0-1.385,0.085-2.041,0.234c0.295-0.903,0.461-1.866,0.461-2.868
			c0-5.093-4.129-9.221-9.221-9.221c-3.658,0-6.807,2.135-8.297,5.223c-1.492-3.088-4.643-5.223-8.299-5.223
			c-5.094,0-9.221,4.128-9.221,9.221c0,0.268,0.018,0.529,0.039,0.791c-1.141-0.505-2.4-0.791-3.729-0.791
			c-5.092,0-9.219,4.127-9.219,9.22c0,5.093,4.127,9.222,9.219,9.222c0.635,0,1.256-0.064,1.854-0.188
			c-0.002,0.063-0.01,0.124-0.01,0.188c0,5.092,4.129,9.221,9.221,9.221c3.1,0,5.838-1.536,7.51-3.882
			c1.67,2.346,4.408,3.882,7.506,3.882c4.719,0,8.602-3.545,9.148-8.115c1.457,0.964,3.201,1.527,5.078,1.527
			c5.092,0,9.221-4.127,9.221-9.22C328.768,197.678,324.639,193.55,319.547,193.55z"/>
		<g>
			<path style="fill:#B4745D;" d="M310.506,117.931c0,0,16.977,92.188,14.754,174.564c0,0-5.561,2.521-11.865,0
				c0,0,2.596-125.604-8.898-173.428L310.506,117.931z"/>
			<g>
				<path style="fill:#3CAA9F;" d="M302.885,123.172c0,0,29.898-35.887,79.033-0.412c0,0-5.539-0.456-16.871-5.314
					c0,0,2.949,1.307,9.037,7.69c0,0-7.002-3.453-15.811-7.819c0,0,7.146,4.828,9.209,11.633c0,0-7.424-6.356-15.521-11.207
					c0,0,2.541,2.498,4.945,10.213c0,0-4.953-5.566-12.85-10.271c0,0,3.93,2.838,4.35,9.618c0,0-3.986-7.362-10.014-10.056
					c0,0,4.16,6.66,4.076,10.918c0,0-3.568-6.562-10.096-9.946c0,0,2.451,4.428,2.053,9.123c0,0-4.539-6.599-9.693-8.66
					c0,0,3.736,4.026,3.811,8.066c0,0-3.922-5.155-7.389-6.331c0,0,3.045,4.523,1.906,7.023c0,0-1.471-2.826-6.201-6.138
					c0,0,1.736,3.578,1.092,6.769C317.951,128.07,314.918,121.229,302.885,123.172z"/>
				<path style="fill:#3CAA9F;" d="M308.654,123.172c0,0-29.898-35.887-79.033-0.412c0,0,5.539-0.456,16.871-5.314
					c0,0-2.951,1.307-9.039,7.69c0,0,7.004-3.453,15.813-7.819c0,0-7.146,4.828-9.211,11.633c0,0,7.426-6.356,15.523-11.207
					c0,0-2.541,2.498-4.943,10.213c0,0,4.949-5.566,12.848-10.271c0,0-3.932,2.838-4.352,9.618c0,0,3.986-7.362,10.016-10.056
					c0,0-4.16,6.66-4.078,10.918c0,0,3.568-6.562,10.096-9.946c0,0-2.451,4.428-2.051,9.123c0,0,4.537-6.599,9.693-8.66
					c0,0-3.738,4.026-3.811,8.066c0,0,3.918-5.155,7.389-6.331c0,0-3.047,4.523-1.904,7.023c0,0,1.467-2.826,6.199-6.138
					c0,0-1.736,3.578-1.094,6.769C293.586,128.07,296.621,121.229,308.654,123.172z"/>
				<path style="fill:#3CAA9F;" d="M313.748,120.291c0,0-45.014-12.48-65.207,44.66c0,0,4.295-3.529,10.844-13.975
					c0,0-1.682,2.752-3.051,11.468c0,0,3.789-6.827,8.545-15.431c0,0-3.125,8.037-0.947,14.807c0,0,2.484-9.452,6.381-18.051
					c0,0-0.668,3.501,1.75,11.211c0,0,0.898-7.395,4.713-15.76c0,0-1.617,4.57,1.9,10.384c0,0-0.914-8.321,2.51-13.969
					c0,0,0.369,7.845,2.863,11.298c0,0-0.805-7.427,2.635-13.924c0,0,0.508,5.034,3.508,8.667c0,0-0.027-8.009,3.039-12.64
					c0,0-0.777,5.439,1.459,8.802c0,0,0.287-6.47,2.469-9.412c0,0,0.074,5.454,2.434,6.859c0,0-0.402-3.158,1.604-8.575
					c0,0,0.609,3.93,2.955,6.187C304.15,132.897,302.748,125.546,313.748,120.291z"/>
				<path style="fill:#3CAA9F;" d="M299.395,120.891c0,0,44.379-14.572,67.225,41.561c0,0-4.453-3.325-11.484-13.452
					c0,0,1.807,2.671,3.582,11.312c0,0-4.105-6.641-9.256-15.013c0,0,3.498,7.882,1.639,14.745c0,0-2.924-9.325-7.219-17.733
					c0,0,0.83,3.467-1.225,11.282c0,0-1.244-7.345-5.445-15.523c0,0,1.83,4.491-1.412,10.463c0,0,0.525-8.356-3.16-13.836
					c0,0-0.002,7.854-2.332,11.418c0,0,0.455-7.455-3.283-13.785c0,0-0.27,5.053-3.1,8.822c0,0-0.346-8.001-3.623-12.482
					c0,0,1.031,5.395-1.049,8.859c0,0-0.59-6.449-2.906-9.287c0,0,0.182,5.451-2.109,6.966c0,0,0.252-3.174-2.002-8.491
					c0,0-0.426,3.955-2.664,6.318C309.57,133.033,310.627,125.625,299.395,120.891z"/>
				<path style="fill:#3CAA9F;" d="M306.037,119.162c0,0-7.813-37.842-57.496-31.127c0,0,4.219,1.828,14.381,2.703
					c0,0-2.66-0.197-9.592,2.086c0,0,6.455,0.212,14.582,0.462c0,0-7.096,0.735-11.256,4.896c0,0,7.896-1.743,15.697-2.123
					c0,0-2.83,0.833-7.59,5.523c0,0,5.781-2.131,13.377-2.483c0,0-3.973,0.538-6.924,5.321c0,0,5.779-3.817,11.229-3.43
					c0,0-5.635,3.234-7.234,6.374c0,0,5.164-3.396,11.244-3.318c0,0-3.514,2.274-5.055,5.854c0,0,5.885-3.044,10.449-2.536
					c0,0-4.295,1.479-5.926,4.399c0,0,4.871-2.232,7.859-1.737c0,0-3.984,2.112-4.129,4.38c0,0,2.172-1.487,6.918-2.058
					c0,0-2.664,1.933-3.438,4.511C293.135,116.858,298.016,113.051,306.037,119.162z"/>
				<path style="fill:#3CAA9F;" d="M309.377,110.385c0,0-9.256-37.516,38.473-52.863c0,0-3.02,3.468-11.814,8.636
					c0,0,2.318-1.324,9.555-2.25c0,0-5.733,2.973-12.961,6.7c0,0,6.721-2.395,12.266-0.434c0,0-7.873,1.83-15.078,4.85
					c0,0,2.912-0.469,9.23,1.713c0,0-6.137,0.568-13.145,3.523c0,0,3.818-1.227,8.543,1.818c0,0-6.859-0.955-11.609,1.743
					c0,0,6.479,0.491,9.273,2.635c0,0-6.121-0.839-11.576,1.851c0,0,4.15,0.537,7.084,3.105c0,0-6.621-0.211-10.523,2.213
					c0,0,4.516-0.516,7.244,1.416c0,0-5.357,0.084-7.842,1.819c0,0,4.508,0.188,5.613,2.173c0,0-2.602-0.406-7.129,1.123
					c0,0,3.236,0.598,5.047,2.59C320.027,102.746,313.982,101.414,309.377,110.385z"/>
				<path style="fill:#3CAA9F;" d="M304.145,123.612c0,0,5.092-46.432,65.648-44.011c0,0-4.871,2.682-17,4.892
					c0,0,3.18-0.54,11.781,1.418c0,0-7.744,0.99-17.498,2.218c0,0,8.623,0.074,14.103,4.607c0,0-9.701-1.197-19.131-0.766
					c0,0,3.498,0.679,9.764,5.782c0,0-7.201-1.905-16.385-1.464c0,0,4.846,0.193,8.941,5.613c0,0-7.391-3.934-13.904-2.848
					c0,0,7.15,3.252,9.432,6.848c0,0-6.6-3.498-13.91-2.713c0,0,4.49,2.336,6.752,6.471c0,0-7.43-2.993-12.867-1.863
					c0,0,5.342,1.292,7.633,4.619c0,0-6.113-2.132-9.656-1.195c0,0,5.041,2.088,5.469,4.801c0,0-2.783-1.543-8.557-1.689
					c0,0,3.422,2.024,4.65,5.038C319.41,119.37,313.102,115.345,304.145,123.612z"/>
				<path style="fill:#3CAA9F;" d="M307.807,122.121c0,0,17.564-43.281-36.879-69.902c0,0,3.012,4.672,12.637,12.377
					c0,0-2.543-1.986-11.043-4.348c0,0,6.348,4.55,14.348,10.26c0,0-7.623-4.027-14.598-2.641c0,0,9.103,3.553,17.199,8.41
					c0,0-3.402-1.064-11.34,0.452c0,0,7.244,1.743,15.115,6.491c0,0-4.355-2.129-10.535,0.696c0,0,8.373,0.046,13.59,4.095
					c0,0-7.836-0.532-11.551,1.549c0,0,7.471,0.055,13.531,4.216c0,0-5.063-0.075-9.016,2.49c0,0,7.959,0.893,12.207,4.47
					c0,0-5.313-1.399-8.908,0.439c0,0,6.392,1.027,9.064,3.534c0,0-5.426-0.555-7.094,1.628c0,0,3.184-0.036,8.334,2.576
					c0,0-3.973,0.156-6.484,2.227C296.385,111.141,303.85,110.593,307.807,122.121z"/>
			</g>
		</g>
		<g>
			<path style="fill:#B4745D;" d="M161.186,164.33c0,0,9.4,70.429,4.633,132.71c0,0-4.305,1.7-8.982-0.444
				c0,0,6.668-94.994-0.242-131.631L161.186,164.33z"/>
			<g>
				<path style="fill:#34988E;" d="M155.219,168.014c0,0,23.979-26.051,59.85,2.646c0,0-4.178-0.553-12.574-4.654
					c0,0,2.184,1.099,6.555,6.161c0,0-5.172-2.878-11.678-6.513c0,0,5.229,3.922,6.537,9.151c0,0-5.381-5.09-11.332-9.066
					c0,0,1.83,1.987,3.361,7.919c0,0-3.541-4.4-9.344-8.259c0,0,2.871,2.296,2.934,7.444c0,0-2.742-5.723-7.205-7.986
					c0,0,2.9,5.197,2.678,8.418c0,0-2.455-5.103-7.27-7.908c0,0,1.689,3.443,1.211,6.982c0,0-3.188-5.165-7.014-6.919
					c0,0,2.678,3.188,2.582,6.25c0,0-2.773-4.05-5.357-5.069c0,0,2.137,3.539,1.18,5.388c0,0-1.006-2.194-4.465-4.878
					c0,0,1.182,2.773,0.576,5.164C166.443,172.285,164.402,166.993,155.219,168.014z"/>
				<path style="fill:#34988E;" d="M159.586,168.23c0,0-21.291-28.289-59.818-3.272c0,0,4.211-0.138,12.973-3.392
					c0,0-2.283,0.878-7.129,5.484c0,0,5.43-2.353,12.26-5.328c0,0-5.59,3.387-7.406,8.461c0,0,5.859-4.533,12.172-7.903
					c0,0-2.018,1.797-4.127,7.548c0,0,3.957-4.029,10.111-7.297c0,0-3.082,2.002-3.652,7.12c0,0,3.293-5.425,7.957-7.237
					c0,0-3.398,4.886-3.494,8.113c0,0,2.947-4.835,8.014-7.152c0,0-2.021,3.26-1.895,6.829c0,0,3.684-4.825,7.664-6.193
					c0,0-2.98,2.908-3.188,5.965c0,0,3.16-3.757,5.832-4.517c0,0-2.477,3.311-1.707,5.246c0,0,1.217-2.085,4.926-4.415
					c0,0-1.449,2.645-1.082,5.083C147.996,171.373,150.549,166.308,159.586,168.23z"/>
				<path style="fill:#34988E;" d="M163.551,166.239c0,0-33.609-11.134-51.037,31.368c0,0,3.383-2.51,8.73-10.173
					c0,0-1.375,2.02-2.738,8.567c0,0,3.125-5.026,7.047-11.361c0,0-2.668,5.967-1.271,11.174c0,0,2.234-7.063,5.508-13.428
					c0,0-0.637,2.626,0.904,8.554c0,0,0.959-5.565,4.158-11.755c0,0-1.395,3.4,1.051,7.934c0,0-0.383-6.336,2.422-10.482
					c0,0-0.016,5.953,1.746,8.66c0,0-0.33-5.652,2.516-10.442c0,0,0.195,3.83,2.33,6.692c0,0,0.279-6.064,2.773-9.454
					c0,0-0.793,4.088,0.775,6.718c0,0,0.461-4.887,2.223-7.033c0,0-0.148,4.132,1.586,5.284c0,0-0.188-2.406,1.533-6.433
					c0,0,0.316,2.998,2.006,4.795C155.813,175.424,155.027,169.806,163.551,166.239z"/>
				<path style="fill:#34988E;" d="M152.662,166.155c0,0,34.145-9.37,49.338,33.981c0,0-3.248-2.684-8.191-10.615
					c0,0,1.268,2.09,2.289,8.699c0,0-2.859-5.182-6.445-11.713c0,0,2.352,6.099,0.688,11.225c0,0-1.865-7.17-4.801-13.695
					c0,0,0.498,2.655-1.35,8.495c0,0-0.666-5.607-3.541-11.956c0,0,1.217,3.469-1.461,7.868c0,0,0.711-6.306-1.873-10.593
					c0,0-0.297,5.945-2.193,8.557c0,0,0.623-5.627-1.971-10.559c0,0-0.395,3.814-2.676,6.563c0,0,0.037-6.07-2.277-9.586
					c0,0,0.58,4.123-1.125,6.668c0,0-0.203-4.904-1.852-7.14c0,0-0.066,4.134-1.859,5.194c0,0,0.313-2.393-1.197-6.503
					c0,0-0.471,2.978-2.252,4.684C159.912,175.73,160.99,170.16,152.662,166.155z"/>
				<path style="fill:#34988E;" d="M157.756,165.096c0,0-4.498-28.942-42.363-25.718c0,0,3.125,1.542,10.787,2.585
					c0,0-2.008-0.249-7.342,1.22c0,0,4.881,0.401,11.023,0.895c0,0-5.4,0.291-8.703,3.285c0,0,6.043-1.023,11.961-1.02
					c0,0-2.174,0.523-5.953,3.896c0,0,4.457-1.396,10.223-1.379c0,0-3.027,0.259-5.443,3.77c0,0,4.52-2.674,8.629-2.176
					c0,0-4.385,2.238-5.713,4.555c0,0,4.033-2.377,8.635-2.092c0,0-2.746,1.59-4.045,4.244c0,0,4.568-2.084,8.006-1.529
					c0,0-3.309,0.96-4.65,3.108c0,0,3.77-1.509,6.014-1.021c0,0-3.096,1.45-3.289,3.161c0,0,1.701-1.045,5.313-1.3
					c0,0-2.088,1.364-2.77,3.287C148.074,162.868,151.912,160.169,157.756,165.096z"/>
				<path style="fill:#34988E;" d="M160.611,158.575c0,0-5.6-28.748,31.107-38.579c0,0-2.416,2.512-9.268,6.094
					c0,0,1.803-0.915,7.318-1.346c0,0-4.453,2.037-10.064,4.588c0,0,5.178-1.562,9.303,0.132c0,0-6.029,1.09-11.596,3.106
					c0,0,2.223-0.246,6.924,1.643c0,0-4.668,0.2-10.084,2.176c0,0,2.938-0.787,6.398,1.695c0,0-5.156-0.979-8.854,0.886
					c0,0,4.887,0.614,6.922,2.342c0,0-4.604-0.864-8.832,0.968c0,0,3.121,0.562,5.246,2.615c0,0-5.004-0.408-8.051,1.282
					c0,0,3.439-0.222,5.432,1.343c0,0-4.059-0.137-6.004,1.084c0,0,3.404,0.311,4.168,1.855c0,0-1.955-0.406-5.439,0.582
					c0,0,2.428,0.574,3.723,2.15C168.961,153.191,164.436,151.957,160.611,158.575z"/>
				<path style="fill:#34988E;" d="M156.156,168.395c0,0,5.594-34.962,51.346-30.861c0,0-3.785,1.848-13.051,3.066
					c0,0,2.428-0.29,8.867,1.514c0,0-5.902,0.461-13.332,1.025c0,0,6.525,0.379,10.506,4.016c0,0-7.299-1.27-14.455-1.296
					c0,0,2.625,0.646,7.176,4.743c0,0-5.381-1.713-12.35-1.722c0,0,3.66,0.327,6.559,4.585c0,0-5.447-3.256-10.42-2.677
					c0,0,5.291,2.729,6.883,5.537c0,0-4.865-2.895-10.428-2.575c0,0,3.313,1.938,4.869,5.151c0,0-5.514-2.544-9.672-1.892
					c0,0,3.996,1.178,5.605,3.782c0,0-4.549-1.843-7.266-1.267c0,0,3.736,1.77,3.961,3.84c0,0-2.049-1.273-6.416-1.6
					c0,0,2.518,1.66,3.332,3.988C167.871,165.754,163.246,162.47,156.156,168.395z"/>
				<path style="fill:#34988E;" d="M158.984,167.402c0,0,14.918-32.109-25.303-54.302c0,0,2.105,3.649,9.105,9.843
					c0,0-1.852-1.598-8.199-3.704c0,0,4.635,3.682,10.479,8.304c0,0-5.621-3.334-10.953-2.545c0,0,6.76,3.03,12.705,7.01
					c0,0-2.535-0.932-8.602-0.081c0,0,5.42,1.591,11.201,5.48c0,0-3.217-1.775-8.002,0.133c0,0,6.338,0.348,10.135,3.609
					c0,0-5.912-0.696-8.803,0.739c0,0,5.654,0.321,10.086,3.699c0,0-3.83-0.246-6.918,1.547c0,0,5.992,0.974,9.074,3.841
					c0,0-3.971-1.258-6.762,0c0,0,4.803,1.017,6.73,3.014c0,0-4.086-0.622-5.43,0.969c0,0,2.41,0.091,6.213,2.262
					c0,0-3.014-0.031-4.992,1.442C150.75,158.661,156.42,158.526,158.984,167.402z"/>
			</g>
		</g>
		<g>
			<path style="fill:#B4745D;" d="M114.758,125.112c0,0-16.99,92.273-14.766,174.726c0,0,5.566,2.523,11.875,0
				c0,0-2.598-125.721,8.906-173.589L114.758,125.112z"/>
			<g>
				<path style="fill:#3CAA9F;" d="M122.389,130.359c0,0-29.928-35.922-79.107-0.412c0,0,5.545-0.457,16.885-5.32
					c0,0-2.951,1.307-9.043,7.697c0,0,7.008-3.456,15.824-7.826c0,0-7.152,4.832-9.217,11.643c0,0,7.43-6.362,15.535-11.217
					c0,0-2.543,2.5-4.947,10.223c0,0,4.955-5.572,12.859-10.282c0,0-3.935,2.841-4.353,9.628c0,0,3.988-7.369,10.023-10.065
					c0,0-4.164,6.666-4.08,10.928c0,0,3.57-6.568,10.104-9.955c0,0-2.453,4.432-2.053,9.131c0,0,4.541-6.605,9.703-8.668
					c0,0-3.742,4.03-3.816,8.074c0,0,3.926-5.16,7.396-6.338c0,0-3.049,4.528-1.908,7.029c0,0,1.471-2.828,6.207-6.143
					c0,0-1.738,3.582-1.094,6.775C107.307,135.262,110.344,128.414,122.389,130.359z"/>
				<path style="fill:#3CAA9F;" d="M116.613,130.359c0,0,29.926-35.922,79.105-0.412c0,0-5.545-0.457-16.887-5.32
					c0,0,2.953,1.307,9.047,7.697c0,0-7.01-3.456-15.824-7.826c0,0,7.152,4.832,9.217,11.643c0,0-7.432-6.362-15.535-11.217
					c0,0,2.543,2.5,4.947,10.223c0,0-4.957-5.572-12.861-10.282c0,0,3.936,2.841,4.355,9.628c0,0-3.99-7.369-10.025-10.065
					c0,0,4.166,6.666,4.082,10.928c0,0-3.572-6.568-10.104-9.955c0,0,2.453,4.432,2.053,9.131c0,0-4.543-6.605-9.703-8.668
					c0,0,3.74,4.03,3.814,8.074c0,0-3.924-5.16-7.396-6.338c0,0,3.049,4.528,1.908,7.029c0,0-1.469-2.828-6.205-6.143
					c0,0,1.736,3.582,1.092,6.775C131.693,135.262,128.656,128.414,116.613,130.359z"/>
				<path style="fill:#3CAA9F;" d="M111.514,127.475c0,0,45.055-12.491,65.268,44.702c0,0-4.297-3.532-10.852-13.988
					c0,0,1.682,2.756,3.051,11.479c0,0-3.793-6.832-8.553-15.444c0,0,3.129,8.045,0.949,14.819c0,0-2.486-9.461-6.387-18.067
					c0,0,0.668,3.505-1.752,11.223c0,0-0.9-7.402-4.717-15.775c0,0,1.619,4.575-1.904,10.395c0,0,0.918-8.33-2.51-13.982
					c0,0-0.371,7.852-2.867,11.308c0,0,0.805-7.433-2.637-13.937c0,0-0.506,5.039-3.512,8.676c0,0,0.029-8.016-3.041-12.651
					c0,0,0.779,5.443-1.461,8.809c0,0-0.287-6.475-2.471-9.421c0,0-0.074,5.459-2.435,6.865c0,0,0.4-3.161-1.605-8.583
					c0,0-0.611,3.934-2.957,6.192C121.121,140.093,122.523,132.734,111.514,127.475z"/>
				<path style="fill:#3CAA9F;" d="M125.881,128.074c0,0-44.42-14.586-67.287,41.6c0,0,4.457-3.327,11.496-13.465
					c0,0-1.809,2.674-3.586,11.323c0,0,4.107-6.647,9.264-15.028c0,0-3.5,7.891-1.639,14.76c0,0,2.926-9.334,7.223-17.749
					c0,0-0.828,3.47,1.229,11.292c0,0,1.244-7.352,5.449-15.537c0,0-1.83,4.494,1.414,10.472c0,0-0.525-8.364,3.162-13.849
					c0,0,0.002,7.86,2.334,11.43c0,0-0.455-7.463,3.287-13.799c0,0,0.27,5.058,3.102,8.83c0,0,0.348-8.008,3.629-12.494
					c0,0-1.033,5.4,1.047,8.867c0,0,0.592-6.455,2.91-9.294c0,0-0.182,5.456,2.111,6.972c0,0-0.254-3.177,2.004-8.499
					c0,0,0.426,3.958,2.666,6.323C115.695,140.229,114.637,132.814,125.881,128.074z"/>
				<path style="fill:#3CAA9F;" d="M119.232,126.346c0,0,7.822-37.878,57.549-31.156c0,0-4.223,1.83-14.395,2.706
					c0,0,2.664-0.198,9.602,2.087c0,0-6.461,0.213-14.596,0.463c0,0,7.102,0.734,11.266,4.898c0,0-7.904-1.743-15.713-2.123
					c0,0,2.834,0.832,7.6,5.527c0,0-5.787-2.133-13.391-2.485c0,0,3.977,0.538,6.93,5.325c0,0-5.783-3.819-11.236-3.432
					c0,0,5.639,3.238,7.238,6.381c0,0-5.166-3.398-11.252-3.322c0,0,3.518,2.275,5.057,5.859c0,0-5.891-3.046-10.459-2.538
					c0,0,4.301,1.481,5.932,4.403c0,0-4.875-2.234-7.867-1.739c0,0,3.99,2.114,4.135,4.384c0,0-2.176-1.489-6.924-2.061
					c0,0,2.664,1.936,3.441,4.516C132.148,124.039,127.262,120.229,119.232,126.346z"/>
				<path style="fill:#3CAA9F;" d="M115.891,117.56c0,0,9.264-37.55-38.508-52.911c0,0,3.021,3.471,11.822,8.644
					c0,0-2.318-1.327-9.563-2.253c0,0,5.738,2.976,12.973,6.707c0,0-6.726-2.397-12.277-0.435c0,0,7.883,1.832,15.092,4.854
					c0,0-2.914-0.469-9.238,1.715c0,0,6.143,0.569,13.156,3.527c0,0-3.822-1.23-8.551,1.819c0,0,6.867-0.955,11.621,1.745
					c0,0-6.484,0.491-9.281,2.638c0,0,6.127-0.841,11.586,1.852c0,0-4.156,0.537-7.09,3.108c0,0,6.627-0.212,10.531,2.216
					c0,0-4.52-0.517-7.248,1.416c0,0,5.359,0.085,7.848,1.821c0,0-4.512,0.189-5.619,2.176c0,0,2.605-0.407,7.135,1.123
					c0,0-3.238,0.599-5.049,2.593C105.23,109.914,111.281,108.58,115.891,117.56z"/>
				<path style="fill:#3CAA9F;" d="M121.125,130.8c0,0-5.094-46.476-65.705-44.052c0,0,4.871,2.684,17.014,4.896
					c0,0-3.184-0.541-11.793,1.418c0,0,7.752,0.992,17.516,2.221c0,0-8.633,0.074-14.117,4.611c0,0,9.709-1.197,19.146-0.766
					c0,0-3.5,0.68-9.771,5.787c0,0,7.209-1.906,16.4-1.465c0,0-4.85,0.193-8.949,5.619c0,0,7.397-3.938,13.916-2.851
					c0,0-7.154,3.255-9.44,6.853c0,0,6.606-3.501,13.922-2.716c0,0-4.494,2.338-6.756,6.477c0,0,7.436-2.995,12.877-1.865
					c0,0-5.346,1.294-7.639,4.624c0,0,6.119-2.134,9.664-1.196c0,0-5.045,2.091-5.475,4.806c0,0,2.787-1.545,8.566-1.691
					c0,0-3.426,2.026-4.654,5.042C105.848,126.553,112.16,122.523,121.125,130.8z"/>
				<path style="fill:#3CAA9F;" d="M117.461,129.307c0,0-17.58-43.32,36.914-69.967c0,0-3.016,4.676-12.65,12.388
					c0,0,2.545-1.987,11.055-4.351c0,0-6.354,4.553-14.363,10.27c0,0,7.633-4.032,14.615-2.643c0,0-9.113,3.555-17.217,8.416
					c0,0,3.404-1.064,11.35,0.453c0,0-7.25,1.745-15.129,6.498c0,0,4.359-2.132,10.545,0.695c0,0-8.381,0.047-13.602,4.1
					c0,0,7.842-0.532,11.561,1.55c0,0-7.477,0.054-13.543,4.221c0,0,5.066-0.075,9.023,2.491c0,0-7.967,0.894-12.219,4.474
					c0,0,5.316-1.399,8.918,0.44c0,0-6.398,1.028-9.074,3.537c0,0,5.432-0.555,7.1,1.631c0,0-3.185-0.037-8.342,2.578
					c0,0,3.977,0.156,6.49,2.229C128.893,118.316,121.422,117.768,117.461,129.307z"/>
			</g>
		</g>
	</g>
	<path style="fill:#FFE2B6;" d="M187.809,349.838c0,5.288,32.025,9.576,71.533,9.576c39.506,0,71.531-4.288,71.531-9.576
		c0-5.289-32.025-9.576-71.531-9.576C219.834,340.262,187.809,344.549,187.809,349.838z"/>
	<g>
		<g>
			<path style="fill:#B13344;" d="M246.557,202.172c0.832,1.434,1.451,3.303,2.904,4.164c1.119,0.66,2.447,0.172,3.654,1.275
				c1.818,1.666,2.133,4.085,2.6,6.252c0.232,1.068,0.027,1.893,0.832,2.794c0.805,0.901,2.41,0.596,3.016,1.685
				c0.932,1.679-0.961,4.931-1.768,6.238c-1.398,2.264-3.865,4.233-6.238,5.461c-2.287,1.182-3.701,0.62-6.242,0.462
				c-5.748-0.356-6.738,6.616-13.014,3.966c-4.557-1.927-4.934-9.013-6.492-13.324c-0.738-2.051-0.65-4.518-1.541-6.516
				c-1.008-2.261-3.025-3.706-3.977-5.967c-2.014-4.777,2.047-8.862,0.855-13.779c-0.459-1.896-1.563-2.715-1.313-4.941
				c0.686-6.097,11.047-7.541,15.752-5.233C243.063,188.374,243.385,196.705,246.557,202.172z"/>
			<path style="fill:#F5A584;" d="M214.375,223.082l-3.191,20.583l0.6,6.576l3.633-1.931l7.16-23.633c0,0,0.789-5.438-3.107-6.599
				C219.469,218.079,215.754,217.605,214.375,223.082z"/>
			<path style="fill:#F8B78F;" d="M242.744,220.169c0,0,1.609,2.013-2.398,8.864h-22.211c0,0-3.096-3.867-2.719-8.864l1.68-1.013
				h23.66L242.744,220.169z"/>
			<polyline style="fill:#F5A584;" points="212.629,347.98 210.215,347.778 220.49,270.606 239.516,270.606 221.234,317.484 
				221.223,322.285 212.629,347.98 			"/>
			<polygon style="fill:#F8B78F;" points="256.387,336.171 239.516,307.899 236.648,305.647 240.969,270.606 222.643,270.606 
				229.582,309.232 255.195,338.407 			"/>
			<g>
				<rect x="225.236" y="208.59" style="fill:#F8B78F;" width="7.088" height="8.084"/>
			</g>
			<g>
				<path style="fill:#F6A47A;" d="M225.236,212.301v-3.711h7.088v4.433C229.818,213.047,227.408,213.029,225.236,212.301z"/>
			</g>
			<path style="fill:#F8B78F;" d="M215.416,220.169c0.941-2.116,3.115-2.804,3.115-2.804l7.531-2.843h6.037l6.324,2.343
				c0,0,2.639,0.706,4.32,3.304H215.416z"/>
			<path style="fill:#484FA1;" d="M237.164,244.121c-0.045,0.348-0.043,0.709-0.008,1.075h-16.412l-0.357-5.139l-0.547-4.491
				c-4.152-3.825-2.77-8.734-2.77-8.734c3.871-7.211,4.746-10.727,4.746-10.727l2.109-0.803c0.506,2.031,2.711,2.928,2.711,2.928
				c4.188-0.488,6.941-3.155,6.941-3.155l1.242,0.444c-1.494,4.959-1.139,8.237,1.26,11.664c0.906,1.296,2.721,1.549,4.252,1.722
				l-0.027,0.04C240.305,228.945,238.01,237.607,237.164,244.121z"/>
			<path style="fill:#484FA1;" d="M210.209,284.117c20.771,5.722,37.238,0.235,37.238,0.235l-4.51-15.513
				c-0.195-11.602-0.98-10.869-3.82-18.076c-0.729-1.85-2.225-4.108-2.143-6.125h-16.27l-1.074,5.402L210.209,284.117z"/>
			<path style="fill:#F8B78F;" d="M234.611,206.354c-0.281,0.582-0.656,1.117-1.174,1.577c-2.295,2.044-5.311,3.422-8.418,3.303
				c-7.973-3.854-4.74-19.364-4.74-19.364c1.506-7.424,7.896-7.16,7.896-7.16c4.836-0.023,9.152,2.428,9.697,7.543
				c0.209,1.959-0.246,4.037-0.42,5.98c-0.127,1.43-0.357,2.85-0.869,4.195C236.066,203.805,235.244,205.032,234.611,206.354z"/>
			<path style="fill:#F17C79;" d="M240.969,256.318"/>
			<path style="fill:#B13344;" d="M224.08,185.897c4.277-4.845,9.049-2.933,9.049-2.933c7.568,2.338,7.184,8.672,7.184,8.781
				c0.295,5.008-1.889,7.489-1.889,7.489c-3.02-0.884-3.311,2.883-3.311,2.883c-0.293-3.276-0.488-6.945-0.488-6.945
				s0.389-7.801-8.385-7.476C226.24,187.697,223.285,187.479,224.08,185.897z"/>
			<path style="fill:#F8B78F;" d="M235.586,200.449c0,0,1.01-2.396,2.939-1.342c0,0,1.146,0.68,0.229,2.546
				c0,0-1.234,2.474-3.168,1.436V200.449z"/>
			<path style="fill:#B13344;" d="M230.98,182.598c0,0-14.736-2.998-12.643,13.521c0,0,0.002,1.519,1.293,4.269
				c0,0,0-4.046,0.439-7.296c0,0-0.07-6.045,8.709-5.23C230.396,188.01,230.771,184.037,230.98,182.598z"/>
			<path style="fill:#F8B78F;" d="M243.225,221.24l7.975,21.978l-0.324,5.49l-3.428,1.533l-11.932-24.835
				c0,0-1.531-5.276,2.17-6.964C237.686,218.442,241.299,217.46,243.225,221.24z"/>
			<polygon style="fill:#F5A584;" points="211.254,243.218 215.416,248.311 194.279,260.16 192.852,258.226 			"/>
			<path style="fill:#F5A584;" d="M191.789,261.998c-0.768,0.262-2.443,0.976-2.863-0.017c-0.154-0.363-0.781-0.421-0.697-0.812
				c0.072-0.344,0.008-0.259-0.152-0.638c-0.094-0.225,0.121-0.52,0.111-0.78c-0.018-0.538,3.213-1.14,3.619-1.588
				c-1.807,0.708-2.518-0.338-2.178-0.483c0.293-0.127,2.275-0.519,2.539-0.43c0.674,0.237,1.334,0.262,2.029,0.29
				c0.838,0.031,1.031,0.228,1.307,1.009c0.336,0.961,0.088,1.241-0.609,1.874C194.035,261.2,192.924,261.61,191.789,261.998z"/>
			<g>
				<path style="fill:#EC524F;" d="M322.203,336.969c0.41,1.965-1.478,3.451-1.478,3.451l-4.207,4.286
					c-1.672,0.925-9.9,0.901-9.9,0.901l-21.021-37.943c0,0-1.287-2.145,0.844-3.405l10.172-5.637c0,0,2.893-1.603,4.568,0.406
					C301.18,299.028,315.506,317.622,322.203,336.969z"/>
				<g>
					<polygon style="fill:#D1D3D4;" points="282.137,309.978 262.418,274.737 263.723,273.652 283.441,308.895 					"/>
				</g>
				<polygon style="fill:#EC524F;" points="280.074,312.999 295.035,304.709 299.037,298.654 285.912,304.648 280.578,310.801 				
					"/>
				<path style="fill:#C84543;" d="M316.971,343.025c0.41,1.964-2.096,2.694-2.096,2.694l-11.43,6.333
					c-1.672,0.925-2.061-0.393-2.061-0.393l-21.021-37.94c0,0-1.289-2.147,0.844-3.407l10.172-5.637c0,0,2.488-2.125,4.568,0.406
					C295.947,305.082,310.273,323.678,316.971,343.025z"/>
				<g>
					<path style="fill:#303945;" d="M313.334,345.124c1.262,2.274,0.439,5.143-1.836,6.405c-2.275,1.261-5.143,0.439-6.404-1.836
						c-1.262-2.275-0.441-5.145,1.836-6.404C309.203,342.026,312.072,342.85,313.334,345.124z"/>
					<path style="fill:#1D252F;" d="M311.152,346.334c0.594,1.07,0.209,2.42-0.863,3.014c-1.07,0.594-2.42,0.207-3.014-0.863
						c-0.594-1.071-0.209-2.422,0.863-3.015C309.209,344.875,310.561,345.262,311.152,346.334z"/>
				</g>
				<path style="fill:#A6372E;" d="M305.309,328.837c-2.904-5.569-4.746-3.218-4.746-3.218l-2.338,1.295l-0.563,0.311l-2.336,1.295
					c0,0-2.971,0.315,0.213,5.732l4.322,7.801c0,0,1.02,2.26,5.746-1.151c5.4-2.199,4.025-4.262,4.025-4.262L305.309,328.837z"/>
				<path style="fill:#ED6361;" d="M311.391,313.715c0,0,6.803,6.967,7.455,14.874c0,0-0.695,4.056-3.48,4.806
					c0,0-4.607-5.683-7.557-15.268C307.809,318.126,308.359,313.385,311.391,313.715z"/>
				<path style="fill:#ED6361;" d="M304.785,304.042c0,0,4.094,2.745,4.729,7.236c0,0-1.736,2.887-4.328,4.057
					c0,0-3.221-2.348-4.377-7.535C300.809,307.8,302.141,304.609,304.785,304.042z"/>
				<path style="fill:#252E38;" d="M261.621,279.388c0,0-0.977,1.19-2.059-1.659l5.268-8.309l1.045-0.578L261.621,279.388z"/>
				<polygon style="fill:#303945;" points="260.549,277.45 265.875,268.842 266.813,270.531 261.621,279.388 				"/>
			</g>
			<g>
				<polygon style="fill:#F8B78F;" points="247.447,250.241 251.199,243.218 263.65,271.221 261.688,272.725 				"/>
				<g>
					<path style="fill:#F8B78F;" d="M260.047,270.361c0,0-0.42,5.007,3.891,6.479l1.922-3.357c0,0,0.113-1.096-3.107-3.996
						L260.047,270.361z"/>
				</g>
			</g>
			<g>
				<path style="fill:#D83633;" d="M258.607,337.113l-3.648,6.744c0,0-3.289,4.453-4.711,4.258c0,0-0.266-0.088-0.164-0.41
					l3.797-9.88l2.127-2.331C256.008,335.494,256.412,335.805,258.607,337.113z"/>
				<path style="fill:#FFFFFF;" d="M250.268,347.221l1.012-2.628c0.41-0.042,0.912-0.04,1.25,0.181c0,0,0.301,0.167,0.133,0.406
					C252.662,345.18,250.805,347.139,250.268,347.221z"/>
				<path style="fill:#FFFFFF;" d="M258.607,337.113l-3.648,6.744c0,0-3.289,4.453-4.711,4.258c0,0-0.266-0.088-0.164-0.41
					l0.049-0.127c0.523-0.08,0.771-0.367,1.176-0.713c1.055-0.902,2.176-1.934,2.924-3.123c0.875-1.381,2.984-5.583,3.65-7.064
					L258.607,337.113z"/>
				<g>
					<path style="fill:#FFFFFF;" d="M254.521,338.844c-0.389,0.314-0.748,0.659-1.162,0.934c-0.127,0.082-0.25-0.114-0.125-0.194
						c0.414-0.274,0.777-0.623,1.164-0.935C254.514,338.555,254.635,338.751,254.521,338.844L254.521,338.844z"/>
				</g>
				<g>
					<path style="fill:#FFFFFF;" d="M253.621,338.758c0.148,0.381,0.396,0.713,0.531,1.098c0.049,0.141-0.172,0.211-0.221,0.069
						c-0.133-0.384-0.383-0.719-0.533-1.099C253.346,338.688,253.564,338.619,253.621,338.758L253.621,338.758z"/>
				</g>
				<g>
					<path style="fill:#FFFFFF;" d="M254.127,339.969c-0.432,0.383-0.914,0.699-1.35,1.078c-0.109,0.098-0.281-0.057-0.17-0.154
						c0.434-0.379,0.918-0.698,1.348-1.08C254.068,339.717,254.238,339.871,254.127,339.969L254.127,339.969z"/>
				</g>
				<g>
					<path style="fill:#FFFFFF;" d="M253.117,340.149c0.297,0.362,0.523,0.759,0.725,1.179c0.063,0.134-0.131,0.261-0.197,0.125
						c-0.201-0.422-0.426-0.818-0.721-1.181C252.828,340.158,253.023,340.036,253.117,340.149L253.117,340.149z"/>
				</g>
				<g>
					<path style="fill:#FFFFFF;" d="M253.805,341.488c-0.529,0.31-1.047,0.639-1.588,0.928c-0.131,0.068-0.256-0.126-0.125-0.195
						c0.543-0.289,1.061-0.617,1.59-0.926C253.809,341.219,253.934,341.414,253.805,341.488L253.805,341.488z"/>
				</g>
				<g>
					<path style="fill:#FFFFFF;" d="M252.555,341.607c0.154,0.486,0.318,0.959,0.529,1.422c0.064,0.137-0.158,0.203-0.219,0.07
						c-0.215-0.463-0.375-0.938-0.531-1.424C252.289,341.535,252.51,341.466,252.555,341.607L252.555,341.607z"/>
				</g>
				<g>
					<path style="fill:#FFFFFF;" d="M253.037,343.162c-0.414,0.31-0.932,0.49-1.387,0.729c-0.133,0.067-0.258-0.126-0.125-0.196
						c0.457-0.238,0.975-0.417,1.387-0.729C253.033,342.877,253.154,343.072,253.037,343.162L253.037,343.162z"/>
				</g>
				<g>
					<path style="fill:#FFFFFF;" d="M251.996,343.08c0.154,0.371,0.391,0.7,0.611,1.035c0.08,0.125-0.115,0.25-0.199,0.125
						c-0.23-0.355-0.471-0.699-0.635-1.092C251.717,343.012,251.938,342.943,251.996,343.08L251.996,343.08z"/>
				</g>
				<g>
					<path style="fill:#FFFFFF;" d="M252.455,344.281c-0.311-0.126-0.627-0.22-0.922-0.385c-0.129-0.074-0.023-0.279,0.105-0.205
						c0.291,0.166,0.611,0.259,0.92,0.383C252.697,344.131,252.594,344.336,252.455,344.281L252.455,344.281z"/>
				</g>
				<g>
					<path style="fill:#FFFFFF;" d="M253.822,338.748c0.291-0.201,0.59-0.496,0.754-0.809c0.076-0.142-0.057-0.206-0.195-0.175
						c-0.131,0.029-0.199,0.232-0.234,0.339c-0.061,0.186-0.092,0.411-0.055,0.601c0.021,0.108-0.096,0.206-0.188,0.122
						c-0.414-0.381-0.811-0.81-1.383-0.93c0.047-0.029,0.092-0.059,0.137-0.088c-0.068,0.383,0.988,0.804,1.287,0.842
						c0.148,0.018,0.098,0.245-0.049,0.227c-0.328-0.044-0.678-0.246-0.955-0.414c-0.24-0.147-0.568-0.382-0.508-0.705
						c0.01-0.061,0.076-0.101,0.137-0.088c0.615,0.129,1.045,0.574,1.488,0.986c-0.063,0.039-0.125,0.079-0.186,0.119
						c-0.09-0.442,0.182-1.639,0.854-1.154c0.461,0.333-0.535,1.152-0.781,1.324C253.824,339.031,253.703,338.836,253.822,338.748
						L253.822,338.748z"/>
				</g>
			</g>
			<g>
				<path style="fill:#D83633;" d="M213.592,350.412l-7.443,1.838c0,0-5.51,0.563-6.322-0.623c0,0-0.113-0.256,0.195-0.4l9.863-3.83
					l3.156,0.002C213.041,347.398,213.084,347.908,213.592,350.412z"/>
				<path style="fill:#FFFFFF;" d="M200.5,351.041l2.627-1.021c0.307,0.278,0.643,0.649,0.709,1.047c0,0,0.074,0.336-0.213,0.373
					C203.623,351.439,200.924,351.381,200.5,351.041z"/>
				<path style="fill:#FFFFFF;" d="M213.592,350.412l-7.443,1.838c0,0-5.51,0.563-6.322-0.623c0,0-0.113-0.256,0.195-0.4
					l0.125-0.047c0.41,0.332,0.791,0.324,1.316,0.391c1.379,0.176,2.893,0.309,4.281,0.064c1.609-0.281,6.135-1.547,7.682-2.051
					L213.592,350.412z"/>
				<g>
					<path style="fill:#FFFFFF;" d="M209.561,348.555c-0.49-0.077-0.99-0.111-1.473-0.233c-0.145-0.038-0.082-0.263,0.061-0.224
						c0.486,0.123,0.984,0.156,1.475,0.233C209.77,348.354,209.709,348.575,209.561,348.555L209.561,348.555z"/>
				</g>
				<g>
					<path style="fill:#FFFFFF;" d="M209.02,347.83c-0.182,0.364-0.26,0.772-0.455,1.132c-0.072,0.131-0.271,0.013-0.199-0.118
						c0.195-0.357,0.275-0.766,0.453-1.131C208.885,347.578,209.086,347.695,209.02,347.83L209.02,347.83z"/>
				</g>
				<g>
					<path style="fill:#FFFFFF;" d="M208.463,349.02c-0.572-0.064-1.133-0.209-1.703-0.273c-0.148-0.017-0.148-0.248,0-0.232
						c0.57,0.068,1.131,0.211,1.703,0.273C208.611,348.803,208.613,349.035,208.463,349.02L208.463,349.02z"/>
				</g>
				<g>
					<path style="fill:#FFFFFF;" d="M207.652,348.393c-0.068,0.464-0.213,0.895-0.387,1.328c-0.057,0.138-0.281,0.077-0.225-0.061
						c0.178-0.434,0.32-0.864,0.387-1.33C207.449,348.184,207.674,348.246,207.652,348.393L207.652,348.393z"/>
				</g>
				<g>
					<path style="fill:#FFFFFF;" d="M207.121,349.803c-0.584-0.184-1.174-0.346-1.752-0.553c-0.139-0.05-0.08-0.273,0.063-0.223
						c0.578,0.206,1.168,0.369,1.752,0.552C207.326,349.623,207.266,349.848,207.121,349.803L207.121,349.803z"/>
				</g>
				<g>
					<path style="fill:#FFFFFF;" d="M206.193,348.959c-0.254,0.439-0.496,0.879-0.695,1.348c-0.059,0.137-0.258,0.018-0.201-0.117
						c0.201-0.471,0.441-0.908,0.697-1.348C206.068,348.711,206.268,348.827,206.193,348.959L206.193,348.959z"/>
				</g>
				<g>
					<path style="fill:#FFFFFF;" d="M205.367,350.358c-0.51-0.096-0.988-0.358-1.471-0.535c-0.141-0.052-0.08-0.275,0.061-0.224
						c0.482,0.177,0.963,0.439,1.473,0.535C205.574,350.164,205.514,350.385,205.367,350.358L205.367,350.358z"/>
				</g>
				<g>
					<path style="fill:#FFFFFF;" d="M204.729,349.533c-0.172,0.365-0.256,0.761-0.357,1.148c-0.035,0.143-0.258,0.08-0.223-0.063
						c0.105-0.41,0.201-0.818,0.381-1.202C204.592,349.281,204.791,349.398,204.729,349.533L204.729,349.533z"/>
				</g>
				<g>
					<path style="fill:#FFFFFF;" d="M204.148,350.682c-0.117-0.314-0.262-0.613-0.336-0.939c-0.031-0.145,0.191-0.207,0.225-0.063
						c0.072,0.328,0.219,0.627,0.334,0.939C204.422,350.76,204.199,350.818,204.148,350.682L204.148,350.682z"/>
				</g>
				<g>
					<path style="fill:#FFFFFF;" d="M209.162,347.973c0.344,0.078,0.764,0.103,1.107,0.016c0.154-0.042,0.111-0.182-0.004-0.266
						c-0.109-0.076-0.305,0.009-0.408,0.056c-0.178,0.081-0.365,0.208-0.482,0.364c-0.063,0.088-0.215,0.066-0.215-0.058
						c0.004-0.561,0.053-1.146-0.244-1.649c0.055,0.016,0.107,0.029,0.16,0.043c-0.332,0.207,0.068,1.272,0.242,1.519
						c0.084,0.122-0.115,0.237-0.201,0.116c-0.189-0.273-0.273-0.667-0.334-0.984c-0.055-0.278-0.102-0.676,0.176-0.85
						c0.055-0.035,0.127-0.014,0.158,0.041c0.318,0.543,0.277,1.158,0.273,1.765c-0.072-0.021-0.145-0.038-0.215-0.059
						c0.268-0.362,1.336-0.966,1.43-0.141c0.064,0.563-1.213,0.377-1.506,0.311C208.955,348.163,209.016,347.939,209.162,347.973
						L209.162,347.973z"/>
				</g>
			</g>
			<path style="fill:#B13344;" d="M222.879,186.097c6.834,0.049,7.82,6.808,8.102,12.958c0.16,3.438,1.555,6.8,4.369,9.132
				c2.57,2.128,4.838,2.077,6.508,5.382c2.098,4.146,0.775,12.615,6.404,14.406c6.971,2.215,11.113-6.924,6.441-11.623
				c-2.926-2.94-7.635-2.949-9.203-7.038c-0.707-1.839-0.324-3.839-1.043-5.614c-0.99-2.445-3.244-2.817-4.523-4.507
				c-2.102-2.773-1.582-7.019-3.883-10.322c-2.916-4.195-6.373-6.231-10.205-4.597L222.879,186.097z"/>
		</g>
	</g>
</g>
</svg>
